<svg xmlns="http://www.w3.org/2000/svg" width="640" height="360" viewBox="0 0 640 360" fill="none"><defs><pattern id="cells" width="19" height="23" patternUnits="userSpaceOnUse"><rect x="2" y="2" width="15" height="19" rx="1" fill="#7891a4" fill-opacity=".12" stroke="#647f93" stroke-width=".6"/></pattern></defs><g stroke="#899cae" stroke-width=".8"><ellipse cx="320" cy="180" rx="224" ry="92" transform="rotate(-18 320 180)" stroke-dasharray="3 6"/><circle cx="320" cy="180" r="126" opacity=".4"/><path d="M320 30v19m0 262v19M91 180h18m422 0h18"/><path d="m122 94 9 9m-9 0 9-9m379 176 9 9m-9 0 9-9"/></g><g stroke="#49647b" stroke-width="1.5" stroke-linejoin="round"><path d="m235 164-110 41 35 35 109-41z" fill="#cad6df"/><path d="m235 164-110 41 35 35 109-41z" fill="url(#cells)"/><path d="m372 163 111-42 36 36-112 43z" fill="#cad6df"/><path d="m372 163 111-42 36 36-112 43z" fill="url(#cells)"/><path d="m226 102 118-45 67 69-118 45z" fill="#eef1f2"/><path d="m226 102 67 69 5 124-67-69z" fill="#b9c9d4"/><path d="m293 171 118-45 5 124-118 45z" fill="#d0dbe2"/><path d="m302 178 99-39 4 105-99 38z" fill="url(#cells)"/><path d="m238 120 44 47 4 105-44-47z" fill="#cbd7de"/><path d="m242 157 41 45m-39-11 41 43m-16-94 4 117m29-19 100-39m-53-39 4 104M226 102l5 124m62-55 5 124m113-169 5 124"/><path d="m230 99 63 65 112-41m-170-17 110-41 58 60"/><path d="m264 119 62-24 28 29-62 24z" fill="#d5dfe5"/><path d="m308 105 11-43m11 55 54-47"/><circle cx="319" cy="61" r="2" fill="#49647b"/></g><g fill="#526b80" font-family="monospace" font-size="9" letter-spacing="1"><text x="87" y="294">STUDENT-LED EXPLORATION</text><text x="419" y="82">6U / CSLI</text></g></svg>
